<svg width="13" height="16" viewBox="0 0 13 16" fill="none" xmlns="http://www.w3.org/2000/svg">
<path d="M7.67632 14.6529L7.6712 14.6764L7.6712 4.63903L10.8335 7.7944C10.9879 7.94891 11.1971 8.03366 11.4166 8.03366C11.6361 8.03366 11.8438 7.94891 11.9985 7.7944L12.4897 7.30342C12.6441 7.14903 12.7295 6.9433 12.7295 6.72391C12.7295 6.5044 12.6447 6.29854 12.4903 6.14415L7.08193 0.735244C6.92693 0.580243 6.72047 0.495487 6.50083 0.496097C6.27998 0.495487 6.07339 0.580243 5.91864 0.735244L0.509736 6.14415C0.355468 6.29854 0.27059 6.50427 0.27059 6.72391C0.27059 6.9433 0.35559 7.14903 0.509736 7.30342L1.00096 7.7944C1.1551 7.94891 1.36096 8.03366 1.58047 8.03366C1.79986 8.03366 1.99486 7.94891 2.14913 7.7944L5.32913 4.60342L5.32913 14.6642C5.32913 15.1162 5.71876 15.4961 6.17059 15.4961H6.86535C7.31717 15.4961 7.67632 15.105 7.67632 14.6529Z" fill="#00A2B5"/>
</svg>
