<svg width="102" height="386" viewBox="0 0 102 386" fill="none" xmlns="http://www.w3.org/2000/svg">
<path fill-rule="evenodd" clip-rule="evenodd" d="M97.0404 304.023L92.5718 299.475V270.748L85.7093 263.886V258.699H83.6346V253.832H88.5022V258.699H86.4275V263.646L93.2102 270.429V299.236L97.9979 304.023H101.349V308.891H96.4818V304.023H97.0404ZM92.2525 234.6V221.753L83.5547 213.135V169.886L74.059 160.39V197.814L64.9623 206.911V211.619H67.0369V216.487H62.1694V211.619H64.2441V206.672L73.3408 197.575V159.672L50.6788 137.09V150.415L59.6957 159.432L59.6957 186.084H61.7704V190.952H56.9827V186.084H59.0573L59.0573 159.752L50.0404 150.735V116.981L40.5447 107.485V156.241H42.6194V161.108H37.7518V156.241H39.9063V106.847L31.2883 98.2288V0.239258L32.0065 0.239258V97.9894L50.6788 116.662V136.052L73.3408 158.714V158.634H74.059V159.432L84.1931 169.567V212.816L92.8909 221.514V234.6H94.9656V239.468H90.098V234.6H92.2525ZM-16.6691 221.913V210.742H-14.5943V205.874H-19.4619V210.742H-17.3872V222.232L-5.2582 234.361V276.813L-14.9933 286.628V296.921H-16.9882V301.789H-12.2005V296.921H-14.3549V286.867L-4.54004 277.132V234.042L-16.6691 221.913ZM-25.2073 227.339V210.742H-23.1326V205.874H-28.0002V210.742H-25.9255V227.658L-13.8763 239.708V269.87L-26.4042 282.478V296.921H-28.0002V301.789H-23.1326V296.921H-25.7659V282.718L-13.1581 270.19V239.388L-25.2073 227.339ZM22.1917 313.838V318.705H17.3241V313.838H22.1917ZM50.6788 380.548H52.7535V327.962L34.4802 309.609V300.991H32.4055V296.203H37.273V300.991H35.1186V309.369L52.7535 327.004V290.936L46.9284 285.111L40.4649 278.648V248.565L34.4802 242.58V232.366H32.4055V227.499H37.273V232.366H35.1186V242.261L41.1831 248.325V278.409L46.9284 284.154V263.487L54.5888 255.826V217.045L47.1678 209.704V242.021H49.3223V246.889H44.4547V242.021H46.5294V208.986L35.9963 198.533V203.719L27.4581 212.258V234.6H29.5328V239.468H24.6653V234.6H26.8198V227.339L12.2969 241.782V271.067L27.9369 286.787V313.838H30.0116V318.706H25.144V313.838H27.2985V287.026L12.2969 272.025V280.004L0.806252 291.575V296.921H2.88094V301.789H-1.98661V296.921H0.0880661V291.256L11.5787 279.765V241.543L26.8198 226.381V212.018L35.3579 203.4V173.477L24.5855 162.704L24.5855 0L25.2238 0L25.2238 162.385L35.9963 173.157V197.575L55.2272 216.806V256.145L47.5667 263.806V284.792L53.4716 290.697V358.444L77.1711 334.745L77.1711 273.381L69.8298 265.96V258.699H67.5956V253.831H72.4631V258.699H70.4682V265.721L77.8094 273.062L77.8094 335.064L53.4716 359.402V380.548H55.5463V385.415H50.6788V380.548ZM91.9333 321.818V329.239H89.8586L89.8586 334.106H94.7262V329.239H92.5717V321.578L84.7517 313.758V271.626L78.368 265.242V258.699H80.4427V253.832H75.5751V258.699H77.7296V265.482L84.1133 271.945V313.998L91.9333 321.818ZM0.00830078 166.215V171.082H2.08299V176.429L-8.76926 187.361V205.873H-10.9238V210.741H-6.05621V205.873H-8.13091V187.6L2.80116 176.748V171.082H4.87585V166.215H0.00830078ZM21.0745 154.326V158.635H19.1593V188L1.20525 205.874H2.48197V210.742H-2.3058V205.874H0.247681L18.4412 187.681V158.635H16.7655V154.326H18.4412L18.4412 0.160156L19.1593 0.160156L19.1593 154.326H21.0745ZM11.1 0.239258L11.1 144.032L-11.0834 166.215H-13.3176V171.083H-8.45008V166.215H-10.1258L11.8181 144.271L11.8181 0.239258L11.1 0.239258ZM62.0897 132.621V116.582L38.2306 92.8028L38.2306 0L38.869 0L38.869 92.4836L62.728 116.343V131.983H71.745V129.828H76.6125V134.696H71.745V132.621H62.0897ZM0.40728 139.564L0.40728 102.459L4.87585 97.9901V0.160156L4.23748 0.160156V97.671L-10.7642 112.673L-10.7642 134.058L-19.462 142.676V148.74H-22.0952V153.608H-17.2277V148.74H-18.7438V142.995L-10.1258 134.377L-10.1258 112.992L-0.231102 103.097L-0.231102 139.245L-10.9238 149.937H-13.3176V154.725H-8.45009V149.937H-9.96621L0.40728 139.564Z" fill="white"/>
<path fill-rule="evenodd" clip-rule="evenodd" d="M97.0404 304.023L92.5718 299.475V270.748L85.7093 263.886V258.699H83.6346V253.832H88.5022V258.699H86.4275V263.646L93.2102 270.429V299.236L97.9979 304.023H101.349V308.891H96.4818V304.023H97.0404ZM92.2525 234.6V221.753L83.5547 213.135V169.886L74.059 160.39V197.814L64.9623 206.911V211.619H67.0369V216.487H62.1694V211.619H64.2441V206.672L73.3408 197.575V159.672L50.6788 137.09V150.415L59.6957 159.432L59.6957 186.084H61.7704V190.952H56.9827V186.084H59.0573L59.0573 159.752L50.0404 150.735V116.981L40.5447 107.485V156.241H42.6194V161.108H37.7518V156.241H39.9063V106.847L31.2883 98.2288V0.239258L32.0065 0.239258V97.9894L50.6788 116.662V136.052L73.3408 158.714V158.634H74.059V159.432L84.1931 169.567V212.816L92.8909 221.514V234.6H94.9656V239.468H90.098V234.6H92.2525ZM-16.6691 221.913V210.742H-14.5943V205.874H-19.4619V210.742H-17.3872V222.232L-5.2582 234.361V276.813L-14.9933 286.628V296.921H-16.9882V301.789H-12.2005V296.921H-14.3549V286.867L-4.54004 277.132V234.042L-16.6691 221.913ZM-25.2073 227.339V210.742H-23.1326V205.874H-28.0002V210.742H-25.9255V227.658L-13.8763 239.708V269.87L-26.4042 282.478V296.921H-28.0002V301.789H-23.1326V296.921H-25.7659V282.718L-13.1581 270.19V239.388L-25.2073 227.339ZM22.1917 313.838V318.705H17.3241V313.838H22.1917ZM50.6788 380.548H52.7535V327.962L34.4802 309.609V300.991H32.4055V296.203H37.273V300.991H35.1186V309.369L52.7535 327.004V290.936L46.9284 285.111L40.4649 278.648V248.565L34.4802 242.58V232.366H32.4055V227.499H37.273V232.366H35.1186V242.261L41.1831 248.325V278.409L46.9284 284.154V263.487L54.5888 255.826V217.045L47.1678 209.704V242.021H49.3223V246.889H44.4547V242.021H46.5294V208.986L35.9963 198.533V203.719L27.4581 212.258V234.6H29.5328V239.468H24.6653V234.6H26.8198V227.339L12.2969 241.782V271.067L27.9369 286.787V313.838H30.0116V318.706H25.144V313.838H27.2985V287.026L12.2969 272.025V280.004L0.806252 291.575V296.921H2.88094V301.789H-1.98661V296.921H0.0880661V291.256L11.5787 279.765V241.543L26.8198 226.381V212.018L35.3579 203.4V173.477L24.5855 162.704L24.5855 0L25.2238 0L25.2238 162.385L35.9963 173.157V197.575L55.2272 216.806V256.145L47.5667 263.806V284.792L53.4716 290.697V358.444L77.1711 334.745L77.1711 273.381L69.8298 265.96V258.699H67.5956V253.831H72.4631V258.699H70.4682V265.721L77.8094 273.062L77.8094 335.064L53.4716 359.402V380.548H55.5463V385.415H50.6788V380.548ZM91.9333 321.818V329.239H89.8586L89.8586 334.106H94.7262V329.239H92.5717V321.578L84.7517 313.758V271.626L78.368 265.242V258.699H80.4427V253.832H75.5751V258.699H77.7296V265.482L84.1133 271.945V313.998L91.9333 321.818ZM0.00830078 166.215V171.082H2.08299V176.429L-8.76926 187.361V205.873H-10.9238V210.741H-6.05621V205.873H-8.13091V187.6L2.80116 176.748V171.082H4.87585V166.215H0.00830078ZM21.0745 154.326V158.635H19.1593V188L1.20525 205.874H2.48197V210.742H-2.3058V205.874H0.247681L18.4412 187.681V158.635H16.7655V154.326H18.4412L18.4412 0.160156L19.1593 0.160156L19.1593 154.326H21.0745ZM11.1 0.239258L11.1 144.032L-11.0834 166.215H-13.3176V171.083H-8.45008V166.215H-10.1258L11.8181 144.271L11.8181 0.239258L11.1 0.239258ZM62.0897 132.621V116.582L38.2306 92.8028L38.2306 0L38.869 0L38.869 92.4836L62.728 116.343V131.983H71.745V129.828H76.6125V134.696H71.745V132.621H62.0897ZM0.40728 139.564L0.40728 102.459L4.87585 97.9901V0.160156L4.23748 0.160156V97.671L-10.7642 112.673L-10.7642 134.058L-19.462 142.676V148.74H-22.0952V153.608H-17.2277V148.74H-18.7438V142.995L-10.1258 134.377L-10.1258 112.992L-0.231102 103.097L-0.231102 139.245L-10.9238 149.937H-13.3176V154.725H-8.45009V149.937H-9.96621L0.40728 139.564Z" fill="url(#paint0_linear)"/>
<defs>
<linearGradient id="paint0_linear" x1="36.6746" y1="0" x2="36.6769" y2="385.415" gradientUnits="userSpaceOnUse">
<stop stop-color="#8226B7"/>
<stop offset="1" stop-color="#00A2B5"/>
</linearGradient>
</defs>
</svg>
