<svg width="97" height="386" viewBox="0 0 97 386" fill="none" xmlns="http://www.w3.org/2000/svg">
<path fill-rule="evenodd" clip-rule="evenodd" d="M4.37541 304.023L8.84401 299.475L8.84401 270.748L15.7065 263.886V258.699H17.7812V253.832H12.9136V258.699H14.9883V263.646L8.20564 270.429L8.20564 299.236L3.41785 304.023H0.0664063L0.0664063 308.891H4.93398V304.023H4.37541ZM9.16377 234.6V221.753L17.8616 213.135L17.8616 169.886L27.3574 160.39V197.814L36.4541 206.911V211.619H34.3794V216.487H39.247V211.619H37.1723V206.672L28.0755 197.575V159.672L50.7377 137.09V150.415L41.7207 159.432L41.7207 186.084H39.646V190.952H44.4338V186.084H42.3591L42.3591 159.752L51.3761 150.735V116.981L60.8719 107.485V156.241H58.7971V161.108H63.6647V156.241H61.5102V106.847L70.1283 98.2288V0.239258L69.4101 0.239258V97.9894L50.7377 116.662V136.052L28.0755 158.714V158.634H27.3574V159.432L17.2232 169.567L17.2232 212.816L8.5254 221.514V234.6H6.4507L6.4507 239.468H11.3183V234.6H9.16377ZM118.086 221.913V210.742H116.011V205.874H120.879V210.742H118.804V222.232L106.675 234.361V276.813L116.41 286.628V296.921H118.405V301.789H113.617V296.921H115.772V286.867L105.957 277.132V234.042L118.086 221.913ZM126.624 227.339V210.742H124.549V205.874H129.417V210.742H127.342V227.658L115.293 239.708V269.87L127.821 282.478V296.921H129.417V301.789H124.549V296.921H127.182V282.718L114.574 270.19V239.388L126.624 227.339ZM79.2246 313.838V318.705H84.0922V313.838H79.2246ZM50.7379 380.548H48.6632V327.962L66.9366 309.609V300.991H69.0113V296.203H64.1437V300.991H66.2982V309.369L48.6632 327.004V290.936L54.4883 285.111L60.9518 278.648V248.565L66.9366 242.58V232.366H69.0113V227.499H64.1437V232.366H66.2982V242.261L60.2337 248.325V278.409L54.4883 284.154V263.487L46.8279 255.826V217.045L54.2489 209.704V242.021H52.0944V246.889H56.962V242.021H54.8873V208.986L65.4204 198.533V203.719L73.9586 212.258V234.6H71.8839V239.468H76.7515V234.6H74.597V227.339L89.12 241.782V271.067L73.4799 286.787V313.838H71.4052V318.706H76.2727V313.838H74.1182V287.026L89.12 272.025V280.004L100.611 291.575V296.921H98.5359V301.789H103.404V296.921H101.329V291.256L89.8381 279.765V241.543L74.597 226.381V212.018L66.0588 203.4V173.477L76.8313 162.704L76.8313 0L76.1929 0L76.1929 162.385L65.4204 173.157V197.575L46.1895 216.806V256.145L53.8499 263.806V284.792L47.945 290.697V358.444L24.2455 334.745L24.2455 273.381L31.5867 265.96L31.5867 258.699H33.821V253.831H28.9535V258.699H30.9484L30.9484 265.721L23.6071 273.062L23.6071 335.064L47.945 359.402V380.548H45.8703V385.415H50.7379V380.548ZM9.4818 321.818V329.239H11.5565L11.5565 334.106H6.68893V329.239H8.84343V321.578L16.6635 313.758V271.626L23.0472 265.242L23.0472 258.699H20.9725V253.832H25.8401V258.699H23.6856L23.6856 265.482L17.3018 271.945V313.998L9.4818 321.818ZM101.408 166.215V171.082H99.3331V176.429L110.185 187.361V205.873H112.34V210.741H107.472V205.873H109.547V187.6L98.615 176.748V171.082H96.5403V166.215H101.408ZM80.342 154.326V158.635H82.2571V188L100.211 205.874H98.9345V210.742H103.722V205.874H101.169L82.9752 187.681V158.635H84.651V154.326H82.9752L82.9752 0.160156L82.2571 0.160156L82.2571 154.326H80.342ZM90.3161 0.239258L90.3161 144.032L112.5 166.215H114.734V171.083H109.866V166.215H111.542L89.5979 144.271L89.5979 0.239258L90.3161 0.239258ZM39.3264 132.621V116.582L63.1855 92.8028L63.1855 0L62.5471 0L62.5471 92.4836L38.688 116.343V131.983H29.671V129.828H24.8034V134.696H29.671V132.621H39.3264ZM101.009 139.564L101.009 102.459L96.5403 97.9901V0.160156L97.1786 0.160156V97.671L112.18 112.673L112.18 134.058L120.878 142.676V148.74H123.511V153.608H118.644V148.74H120.16V142.995L111.542 134.377L111.542 112.992L101.647 103.097L101.647 139.245L112.34 149.937H114.734V154.725H109.866V149.937H111.382L101.009 139.564Z" fill="white"/>
<path fill-rule="evenodd" clip-rule="evenodd" d="M4.37541 304.023L8.84401 299.475L8.84401 270.748L15.7065 263.886V258.699H17.7812V253.832H12.9136V258.699H14.9883V263.646L8.20564 270.429L8.20564 299.236L3.41785 304.023H0.0664063L0.0664063 308.891H4.93398V304.023H4.37541ZM9.16377 234.6V221.753L17.8616 213.135L17.8616 169.886L27.3574 160.39V197.814L36.4541 206.911V211.619H34.3794V216.487H39.247V211.619H37.1723V206.672L28.0755 197.575V159.672L50.7377 137.09V150.415L41.7207 159.432L41.7207 186.084H39.646V190.952H44.4338V186.084H42.3591L42.3591 159.752L51.3761 150.735V116.981L60.8719 107.485V156.241H58.7971V161.108H63.6647V156.241H61.5102V106.847L70.1283 98.2288V0.239258L69.4101 0.239258V97.9894L50.7377 116.662V136.052L28.0755 158.714V158.634H27.3574V159.432L17.2232 169.567L17.2232 212.816L8.5254 221.514V234.6H6.4507L6.4507 239.468H11.3183V234.6H9.16377ZM118.086 221.913V210.742H116.011V205.874H120.879V210.742H118.804V222.232L106.675 234.361V276.813L116.41 286.628V296.921H118.405V301.789H113.617V296.921H115.772V286.867L105.957 277.132V234.042L118.086 221.913ZM126.624 227.339V210.742H124.549V205.874H129.417V210.742H127.342V227.658L115.293 239.708V269.87L127.821 282.478V296.921H129.417V301.789H124.549V296.921H127.182V282.718L114.574 270.19V239.388L126.624 227.339ZM79.2246 313.838V318.705H84.0922V313.838H79.2246ZM50.7379 380.548H48.6632V327.962L66.9366 309.609V300.991H69.0113V296.203H64.1437V300.991H66.2982V309.369L48.6632 327.004V290.936L54.4883 285.111L60.9518 278.648V248.565L66.9366 242.58V232.366H69.0113V227.499H64.1437V232.366H66.2982V242.261L60.2337 248.325V278.409L54.4883 284.154V263.487L46.8279 255.826V217.045L54.2489 209.704V242.021H52.0944V246.889H56.962V242.021H54.8873V208.986L65.4204 198.533V203.719L73.9586 212.258V234.6H71.8839V239.468H76.7515V234.6H74.597V227.339L89.12 241.782V271.067L73.4799 286.787V313.838H71.4052V318.706H76.2727V313.838H74.1182V287.026L89.12 272.025V280.004L100.611 291.575V296.921H98.5359V301.789H103.404V296.921H101.329V291.256L89.8381 279.765V241.543L74.597 226.381V212.018L66.0588 203.4V173.477L76.8313 162.704L76.8313 0L76.1929 0L76.1929 162.385L65.4204 173.157V197.575L46.1895 216.806V256.145L53.8499 263.806V284.792L47.945 290.697V358.444L24.2455 334.745L24.2455 273.381L31.5867 265.96L31.5867 258.699H33.821V253.831H28.9535V258.699H30.9484L30.9484 265.721L23.6071 273.062L23.6071 335.064L47.945 359.402V380.548H45.8703V385.415H50.7379V380.548ZM9.4818 321.818V329.239H11.5565L11.5565 334.106H6.68893V329.239H8.84343V321.578L16.6635 313.758V271.626L23.0472 265.242L23.0472 258.699H20.9725V253.832H25.8401V258.699H23.6856L23.6856 265.482L17.3018 271.945V313.998L9.4818 321.818ZM101.408 166.215V171.082H99.3331V176.429L110.185 187.361V205.873H112.34V210.741H107.472V205.873H109.547V187.6L98.615 176.748V171.082H96.5403V166.215H101.408ZM80.342 154.326V158.635H82.2571V188L100.211 205.874H98.9345V210.742H103.722V205.874H101.169L82.9752 187.681V158.635H84.651V154.326H82.9752L82.9752 0.160156L82.2571 0.160156L82.2571 154.326H80.342ZM90.3161 0.239258L90.3161 144.032L112.5 166.215H114.734V171.083H109.866V166.215H111.542L89.5979 144.271L89.5979 0.239258L90.3161 0.239258ZM39.3264 132.621V116.582L63.1855 92.8028L63.1855 0L62.5471 0L62.5471 92.4836L38.688 116.343V131.983H29.671V129.828H24.8034V134.696H29.671V132.621H39.3264ZM101.009 139.564L101.009 102.459L96.5403 97.9901V0.160156L97.1786 0.160156V97.671L112.18 112.673L112.18 134.058L120.878 142.676V148.74H123.511V153.608H118.644V148.74H120.16V142.995L111.542 134.377L111.542 112.992L101.647 103.097L101.647 139.245L112.34 149.937H114.734V154.725H109.866V149.937H111.382L101.009 139.564Z" fill="url(#paint0_linear)"/>
<defs>
<linearGradient id="paint0_linear" x1="64.7415" y1="0" x2="64.7393" y2="385.415" gradientUnits="userSpaceOnUse">
<stop stop-color="#8226B7"/>
<stop offset="1" stop-color="#00A2B5"/>
</linearGradient>
</defs>
</svg>
