<svg width="24" height="25" viewBox="0 0 24 25" fill="none" xmlns="http://www.w3.org/2000/svg">
<path d="M22.8 2.14873H19.2V0.94873H4.8V2.14873H1.2C0.48 2.14873 0 2.62873 0 3.34873V6.22873C0 8.98873 2.04 11.2687 4.8 11.6287V11.7487C4.8 15.2287 7.2 18.1087 10.44 18.8287L9.6 21.3487H6.84C6.36 21.3487 5.88 21.7087 5.76 22.1887L4.8 24.9487H19.2L18.24 22.1887C18.12 21.7087 17.64 21.3487 17.16 21.3487H14.4L13.56 18.8287C16.8 18.1087 19.2 15.2287 19.2 11.7487V11.6287C21.96 11.2687 24 8.98873 24 6.22873V3.34873C24 2.62873 23.52 2.14873 22.8 2.14873ZM4.8 9.22873C3.48 8.86873 2.4 7.66873 2.4 6.22873V4.54873H4.8V9.22873ZM14.4 12.9487L12 11.6287L9.6 12.9487L10.2 10.5487L8.4 8.14873H10.92L12 5.74873L13.08 8.14873H15.6L13.8 10.5487L14.4 12.9487ZM21.6 6.22873C21.6 7.66873 20.52 8.98873 19.2 9.22873V4.54873H21.6V6.22873Z" fill="#00A2B5"/>
</svg>
