<svg width="24" height="25" viewBox="0 0 24 25" fill="none" xmlns="http://www.w3.org/2000/svg">
<g clip-path="url(#clip0)">
<g opacity="0.2">
<path d="M12 24.9487C18.6274 24.9487 24 19.5761 24 12.9487C24 6.32131 18.6274 0.94873 12 0.94873C5.37258 0.94873 0 6.32131 0 12.9487C0 19.5761 5.37258 24.9487 12 24.9487Z" fill="url(#paint0_linear)"/>
</g>
<rect x="8" y="6.94873" width="8" height="12" fill="white"/>
<path d="M12 4.94873C7.58872 4.94873 4 8.53745 4 12.9487C4 17.36 7.58872 20.9487 12 20.9487C16.4113 20.9487 20 17.36 20 12.9487C20 8.53745 16.4113 4.94873 12 4.94873ZM14.353 15.3017C14.353 16.2109 13.5433 16.9711 12.4706 17.146V17.6546C12.4706 17.9148 12.2601 18.1252 12.0001 18.1252C11.74 18.1252 11.5295 17.9147 11.5295 17.6546V17.146C10.4568 16.9711 9.64715 16.2109 9.64715 15.3017C9.64715 15.0416 9.85764 14.8311 10.1177 14.8311C10.3779 14.8311 10.5883 15.0416 10.5883 15.3017C10.5883 15.7019 10.9885 16.0501 11.5295 16.183V13.1889C10.6087 12.5243 9.64715 11.7592 9.64715 10.5958C9.64715 9.68664 10.4568 8.92643 11.5295 8.75159V8.24293C11.5295 7.9828 11.74 7.77236 12.0001 7.77236C12.2601 7.77236 12.4706 7.98285 12.4706 8.24293V8.75159C13.5433 8.92643 14.353 9.68669 14.353 10.5958C14.353 10.856 14.1425 11.0665 13.8824 11.0665C13.6223 11.0665 13.4118 10.856 13.4118 10.5958C13.4118 10.1956 13.0117 9.84738 12.4706 9.71451V12.7086C13.3914 13.3733 14.353 14.1383 14.353 15.3017ZM10.5882 10.5958C10.5882 11.129 10.9921 11.576 11.5294 12.0093V9.71445C10.9884 9.84733 10.5882 10.1956 10.5882 10.5958ZM12.4706 16.183C13.0116 16.0501 13.4118 15.7019 13.4118 15.3017C13.4118 14.7685 13.0079 14.3215 12.4706 13.8881V16.183Z" fill="url(#paint1_linear)"/>
</g>
<defs>
<linearGradient id="paint0_linear" x1="12" y1="24.9487" x2="12" y2="0.94873" gradientUnits="userSpaceOnUse">
<stop stop-color="#FFEDAD"/>
<stop offset="1" stop-color="#FFFFE5"/>
</linearGradient>
<linearGradient id="paint1_linear" x1="12" y1="20.9487" x2="12" y2="4.94873" gradientUnits="userSpaceOnUse">
<stop stop-color="#FFDE00"/>
<stop offset="1" stop-color="#FD5900"/>
</linearGradient>
<clipPath id="clip0">
<rect y="0.94873" width="24" height="24" fill="white"/>
</clipPath>
</defs>
</svg>
