<svg width="16" height="16" viewBox="0 0 16 16" fill="none" xmlns="http://www.w3.org/2000/svg">
<path d="M8 0.5C6.54131 0.5 5.14236 1.07946 4.11091 2.11091C3.07946 3.14236 2.5 4.54131 2.5 6C2.5 10.75 8 15.5 8 15.5C8 15.5 13.5 10.75 13.5 6C13.5 4.54131 12.9205 3.14236 11.8891 2.11091C10.8576 1.07946 9.45869 0.5 8 0.5ZM8 10.25C7.15943 10.25 6.33774 10.0007 5.63883 9.53375C4.93992 9.06675 4.39518 8.40299 4.07351 7.6264C3.75184 6.84982 3.66768 5.99529 3.83166 5.17087C3.99565 4.34645 4.40042 3.58917 4.9948 2.9948C5.58917 2.40042 6.34645 1.99565 7.17087 1.83166C7.99529 1.66768 8.84982 1.75184 9.6264 2.07351C10.403 2.39518 11.0667 2.93992 11.5337 3.63883C12.0007 4.33774 12.25 5.15943 12.25 6C12.25 7.12717 11.8022 8.20817 11.0052 9.0052C10.2082 9.80223 9.12717 10.25 8 10.25Z" fill="white"/>
<path d="M8.84975 4.722L8 3L7.15025 4.722L5.25 4.998L6.625 6.33825L6.3005 8.23075L8 7.33725L9.6995 8.23075L9.375 6.33825L10.75 4.998L8.84975 4.722Z" fill="white"/>
</svg>
