<svg width="140" height="140" viewBox="0 0 140 140" fill="none" xmlns="http://www.w3.org/2000/svg">
<g clip-path="url(#clip0)">
<path d="M94.3478 4.35395C86.7646 1.54027 78.5626 0 70.0001 0C61.4377 0 53.2357 1.54027 45.6524 4.35395L39.5654 70L45.6524 135.646C53.2357 138.46 61.4377 140 70.0001 140C78.5626 140 86.7646 138.46 94.3478 135.646L100.435 70L94.3478 4.35395Z" fill="#FFDA44"/>
<path d="M140 70C140 39.9028 121.004 14.2445 94.3477 4.35425V135.647C121.004 125.756 140 100.098 140 70Z" fill="#D80027"/>
<path d="M0 70C0 100.098 18.9963 125.756 45.6523 135.646V4.35425C18.9963 14.2445 0 39.9028 0 70Z" fill="black"/>
</g>
<defs>
<clipPath id="clip0">
<rect width="140" height="140" fill="white"/>
</clipPath>
</defs>
</svg>
