<svg width="140" height="140" viewBox="0 0 140 140" fill="none" xmlns="http://www.w3.org/2000/svg">
<path d="M70 140C108.66 140 140 108.66 140 70C140 31.3401 108.66 0 70 0C31.3401 0 0 31.3401 0 70C0 108.66 31.3401 140 70 140Z" fill="#F0F0F0"/>
<path d="M135.646 94.3477C138.46 86.7645 140 78.5625 140 70C140 61.4376 138.46 53.2356 135.646 45.6523H4.35395C1.54027 53.2356 0 61.4376 0 70C0 78.5625 1.54027 86.7645 4.35395 94.3477L70 100.435L135.646 94.3477Z" fill="#0052B4"/>
<path d="M70.0005 140C100.098 140 125.756 121.004 135.647 94.3477H4.35449C14.245 121.004 39.903 140 70.0005 140Z" fill="#D80027"/>
</svg>
