<svg width="16" height="17" viewBox="0 0 16 17" fill="none" xmlns="http://www.w3.org/2000/svg">
<g clip-path="url(#clip0)">
<path d="M13.6569 2.52063C12.1459 1.00964 10.1368 0.17749 8 0.17749C5.86316 0.17749 3.85413 1.00964 2.34314 2.52063C0.832153 4.03162 0 6.04053 0 8.17749C0.00012207 10.3143 0.832275 12.3232 2.34314 13.8344C3.85425 15.3452 5.86316 16.1774 8 16.1775C10.1368 16.1775 12.1459 15.3453 13.6569 13.8344C15.1678 12.3232 16 10.3143 16 8.17749C16 6.04065 15.1678 4.03162 13.6569 2.52063ZM13.9531 11.9736H11.3198L10.0767 10.4652L10.8903 7.96155L12.953 7.08362L15.0491 8.60632C14.9747 9.84033 14.5828 10.9899 13.9531 11.9736ZM4.68018 11.9736L2.047 11.9738C1.41736 10.9899 1.02527 9.84033 0.950928 8.60645L3.047 7.08362L5.10974 7.96167L5.92334 10.4653L4.68018 11.9736ZM13.451 3.68604L12.6339 6.20056L10.5712 7.07861L8.46875 5.55103V3.14441L10.59 1.60339C11.4801 1.95386 12.2971 2.48669 12.994 3.18347C13.1553 3.34485 13.3075 3.51257 13.451 3.68604ZM5.41321 1.60547L7.53125 3.14441V5.55103L5.42896 7.07861L3.36609 6.20056L2.55029 3.69006C3.30688 2.77295 4.29004 2.04919 5.41321 1.60547ZM6.2301 15.0153L5.42651 12.542L6.66968 11.0337H9.33032L10.5734 12.542L9.76978 15.0154C9.20398 15.162 8.61096 15.24 8 15.24C7.38904 15.24 6.79602 15.1619 6.2301 15.0153Z" fill="white"/>
</g>
<defs>
<clipPath id="clip0">
<rect y="0.17749" width="16" height="16" fill="white"/>
</clipPath>
</defs>
</svg>
