<svg width="14" height="14" viewBox="0 0 14 14" fill="none" xmlns="http://www.w3.org/2000/svg">
<path d="M13.2335 5.90638H8.09371V0.775434C8.09371 0.353157 7.75179 8.39233e-05 7.32951 8.39233e-05H6.67174C6.24958 8.39233e-05 5.90618 0.353157 5.90618 0.775434V5.90638H0.765675C0.343626 5.90638 0 6.24784 0 6.67023V7.33176C0 7.75381 0.343512 8.09379 0.765675 8.09379H5.90629V13.2433C5.90629 13.6653 6.24958 14 6.67185 14H7.32963C7.7519 14 8.09382 13.6652 8.09382 13.2433V8.09379H13.2335C13.6558 8.09379 14 7.75369 14 7.33176V6.67023C14 6.24784 13.6558 5.90638 13.2335 5.90638Z" fill="white"/>
</svg>
