<svg width="122" height="21" viewBox="0 0 122 21" fill="none" xmlns="http://www.w3.org/2000/svg">
<path fill-rule="evenodd" clip-rule="evenodd" d="M33.2937 9.74968C32.6583 16.9826 41.6703 13.2973 42.221 13.1808C42.4328 14.6422 42.634 16.1036 42.8458 17.565C42.5811 17.6497 28.0835 23.6754 27.6917 9.89794C27.6917 9.7285 27.6599 9.56966 27.6811 9.41081C29.6508 -1.97331 42.7293 1.41545 42.9941 1.43663C42.7823 3.00394 42.5811 4.57124 42.3693 6.13854C41.8398 5.9691 33.8868 2.88745 33.2937 9.74968ZM53.478 5.97969L51.1271 18.6664C49.4115 18.6664 45.9698 18.6664 45.9698 18.6664L48.469 5.97969C48.469 5.97969 45.6521 5.97969 44.2437 5.97969C44.5084 4.35944 44.7626 2.73919 45.0273 1.12953C49.4009 1.12953 53.7852 1.12953 58.1588 1.12953C57.894 2.74978 57.6399 4.37003 57.3751 5.97969C56.0937 5.97969 54.7806 5.97969 53.478 5.97969ZM62.077 16.1248L63.7926 12.8631L65.8152 13.9539L65.1904 7.11281C65.1904 7.11281 59.6413 17.7239 59.1119 18.0416C57.9682 18.804 55.5642 18.6981 53.6369 18.6664L63.316 1.12953H68.8016C69.6382 6.97514 70.4748 12.8207 71.3008 18.6664C69.8394 18.6664 67.0437 18.6664 67.0437 18.6664L62.077 16.1248ZM83.3944 5.07955C81.986 5.07955 80.694 5.03719 79.2856 5.03719C79.1267 6.03264 78.8196 7.8541 78.8196 7.8541C78.8196 7.8541 79.4974 7.8541 80.5352 7.8541C82.1131 7.8541 83.871 8.23533 84.3263 6.79511C84.7076 5.5561 83.5215 5.11132 83.3944 5.07955ZM77.57 14.4304H81.2765C81.2765 14.4304 83.0344 14.4198 83.3944 13.0114C83.8286 11.317 82.3037 11.3064 82.3037 11.3064H77.9407L77.57 14.4304ZM88.6788 13.9433C87.3233 18.7828 82.9179 18.6028 82.9179 18.6028C82.9179 18.6028 74.4566 18.6664 72.4021 18.6558C73.44 12.8631 74.4883 7.07045 75.5262 1.2672L83.3838 1.03422C83.3838 1.03422 87.9269 1.27778 88.827 5.07955C89.4836 7.87528 86.9632 9.59084 86.9632 9.59084C86.9632 9.59084 89.4201 11.2852 88.6788 13.9433ZM116.064 18.6134L112.019 15.9659L113.576 12.7043L115.598 13.795L114.973 7.11281C114.973 7.11281 114.666 7.0175 114.666 7.11281C114.656 7.20811 108.905 18.6134 108.905 18.6134L99.3004 18.6664L96.1764 11.7724H96.0176C96.0176 11.7724 95.181 16.3684 94.768 18.6664C93.0524 18.6664 91.3263 18.6664 89.6107 18.6664C89.6107 18.6134 93.0524 1.12953 93.0524 1.12953H98.0614L96.9706 6.92219H97.1295C97.1295 6.92219 100.878 3.05689 102.763 1.12953C104.797 1.12953 106.83 1.12953 108.863 1.12953L100.529 9.74968L104.309 17.2579L112.951 1.35191H118.394L121.041 18.6028H116.064V18.6134Z" fill="#4878FE"/>
<path fill-rule="evenodd" clip-rule="evenodd" d="M14.8576 7.69704C14.7411 7.74999 10.6322 1.12073 10.6322 1.12073C12.2525 0.908934 15.673 0.855985 16.732 1.27958C16.732 1.33253 18.8288 2.21149 19.2312 3.15399C19.2842 3.25988 19.3371 3.30224 19.1359 3.52463C17.7274 4.99662 16.266 6.23564 14.8576 7.69704ZM28.6244 18.4564C28.6244 18.4564 24.6426 19.0282 21.9316 17.8316C20.5655 17.2279 18.3522 13.4791 18.3522 13.4791L13.4385 18.6681C9.47794 18.6681 1.55671 18.6681 1.55671 18.6681L3.42053 8.04651C3.42053 8.04651 1.19666 9.06314 0 9.59263C0 8.07828 0 6.56393 0 5.04958C0.158848 4.99663 5.88797 1.23722 5.94092 1.13132C7.29642 1.13132 10.0074 1.13132 10.0074 1.13132C10.0074 1.13132 7.29642 16.1372 7.19052 17.1114C7.24347 17.1114 7.29642 17.1114 7.34937 17.1114C12.6125 11.7847 17.8757 6.45803 23.1389 1.13132C25.4792 1.13132 30.4882 1.13132 30.4882 1.13132L22.3976 9.13726L28.6244 18.4564Z" fill="white"/>
</svg>
